<svg width="362" height="434" viewBox="0 0 362 434" fill="none" xmlns="http://www.w3.org/2000/svg">
<path d="M18.1804 422.872H2.41333V17.8051H18.1804V198.527H62.5536V17.8051H78.3207V422.872H62.5536V235.918H18.1804V422.872ZM178.579 344.974V310.699H194.346V344.974C194.346 372.809 191.268 394.414 185.111 409.785C178.955 424.741 169.72 432.219 157.406 432.219C145.093 432.219 135.783 424.741 129.476 409.785C123.169 394.414 120.015 372.809 120.015 344.974V95.7025C120.015 67.8672 123.094 46.4714 129.251 31.515C135.407 16.1433 144.642 8.4574 156.956 8.4574C169.269 8.4574 178.579 16.1433 184.886 31.515C191.193 46.4714 194.346 67.8672 194.346 95.7025V232.802H135.783V344.974C135.783 378.211 142.916 394.829 157.181 394.829C171.446 394.829 178.579 378.211 178.579 344.974ZM135.783 95.7025V195.411H178.579V95.7025C178.579 62.4663 171.446 45.8482 157.181 45.8482C142.916 45.8482 135.783 62.4663 135.783 95.7025ZM274.533 422.872H258.766V308.207C238.344 301.975 228.133 273.309 228.133 222.208V17.8051H243.9V222.208C243.9 255.445 251.408 272.062 266.424 272.062C281.441 272.062 288.949 255.445 288.949 222.208V17.8051H304.716V222.208C304.716 273.309 294.655 301.975 274.533 308.207V422.872ZM359.839 422.872H344.072V354.322H359.839V422.872ZM342.946 17.8051H360.966V170.484L357.587 292.004H346.325L342.946 170.484V17.8051Z" fill="white"/>
</svg>
